<?xml version="1.0" standalone="no"?>
<!DOCTYPE svg PUBLIC "-//W3C//DTD SVG 20010904//EN"
 "http://www.w3.org/TR/2001/REC-SVG-20010904/DTD/svg10.dtd">
<svg version="1.0" xmlns="http://www.w3.org/2000/svg"
 width="999.000000pt" height="264.000000pt" viewBox="0 0 999.000000 264.000000"
 preserveAspectRatio="xMidYMid meet">

<g transform="translate(0.000000,264.000000) scale(0.100000,-0.100000)"
fill="#000000" stroke="none">
<path d="M0 1320 l0 -1320 4995 0 4995 0 0 1320 0 1320 -4995 0 -4995 0 0
-1320z m1548 733 c84 -63 78 -180 -12 -247 -20 -15 -43 -21 -82 -21 l-55 0
-220 -227 -219 -226 0 -221 0 -221 24 0 c35 0 84 -45 97 -91 l12 -39 216 0
216 0 227 228 c124 125 231 237 237 249 18 36 13 63 -18 94 -21 20 -39 29 -62
29 -29 0 -54 -21 -223 -189 -105 -104 -206 -196 -224 -206 -39 -19 -123 -22
-167 -5 -39 15 -92 66 -116 112 -24 46 -25 136 -3 181 9 18 111 128 227 245
221 221 237 233 279 195 10 -9 18 -30 18 -47 0 -26 -28 -58 -205 -236 -193
-194 -205 -208 -205 -243 0 -52 35 -87 86 -87 36 0 49 11 228 189 105 104 206
197 225 206 25 12 51 16 96 13 74 -5 131 -37 171 -98 35 -53 43 -148 17 -202
-10 -20 -134 -154 -275 -297 l-256 -261 -355 0 c-334 0 -356 1 -378 19 l-24
19 0 361 0 361 243 242 242 243 0 58 c0 53 3 61 38 98 56 60 137 69 200 22z
m4042 -111 c0 -32 -5 -63 -11 -69 -8 -8 -88 -10 -283 -6 -359 6 -366 3 -366
-173 0 -62 4 -95 13 -101 6 -5 148 -56 315 -113 335 -114 345 -119 358 -205
11 -74 -5 -234 -27 -282 -28 -58 -88 -109 -150 -127 -59 -18 -171 -20 -471 -9
l-188 6 0 64 0 63 311 0 311 0 34 34 34 34 0 100 c0 68 -4 103 -12 109 -7 5
-148 56 -313 112 -180 61 -308 110 -322 123 -37 35 -46 80 -41 212 5 137 23
186 80 229 81 60 100 63 455 59 l273 -3 0 -57z m1788 -160 c2 -192 3 -192 23
-181 14 7 48 8 101 4 l79 -7 -3 -62 -3 -61 -98 0 -97 0 0 -226 c0 -284 -6
-272 137 -279 l98 -5 3 -63 3 -64 -114 4 c-106 3 -117 5 -162 33 -36 22 -57
45 -77 84 l-28 53 0 477 c0 263 3 481 7 485 4 4 34 6 68 4 l60 -3 3 -193z
m-4868 -363 l0 -479 250 0 250 0 0 -35 0 -35 -290 0 -290 0 0 513 c0 283 2
516 5 518 2 3 20 3 40 1 l35 -4 0 -479z m698 443 c33 -43 5 -112 -46 -112 -62
0 -85 80 -35 119 28 23 59 20 81 -7z m2639 -254 c4 -7 8 -140 8 -296 l0 -284
28 -24 c26 -23 35 -24 153 -24 119 0 126 1 149 25 l25 24 0 289 c0 159 2 291
4 293 2 2 34 2 70 1 l67 -4 -3 -481 c-3 -472 -3 -483 -25 -522 -11 -22 -34
-52 -50 -67 -55 -53 -84 -58 -313 -58 l-210 0 0 65 0 65 201 0 201 0 29 29
c29 29 29 31 29 142 l0 112 -21 -19 c-18 -16 -40 -20 -147 -22 -156 -5 -201 7
-259 64 -69 69 -73 97 -66 424 l6 280 58 0 c35 0 61 -5 66 -12z m-2649 -372
l-3 -361 -42 -3 -42 -3 5 358 c3 197 7 363 9 369 2 6 19 8 39 6 l36 -4 -2
-362z m1317 357 c109 -37 187 -160 189 -298 l1 -70 -303 3 -304 2 7 -52 c24
-181 156 -280 353 -265 43 3 100 13 127 22 51 18 63 13 67 -25 3 -21 -4 -26
-57 -42 -82 -26 -200 -34 -277 -19 -204 40 -322 219 -288 436 22 142 108 260
223 304 67 26 193 28 262 4z m2565 -48 l0 -65 -225 0 c-214 0 -226 -1 -246
-21 -15 -15 -19 -30 -17 -62 l3 -42 241 -60 c133 -33 249 -66 258 -74 13 -11
16 -34 16 -121 0 -132 -19 -178 -94 -225 -46 -28 -55 -30 -177 -33 -71 -3
-186 -1 -255 3 l-125 7 3 62 3 61 230 0 c205 0 234 2 258 18 26 17 28 22 25
79 l-3 62 -250 62 c-174 44 -253 68 -262 80 -7 10 -13 44 -13 78 1 127 34 196
112 235 40 20 58 21 281 21 l237 0 0 -65z m-3638 -95 c33 -80 92 -225 132
-323 l73 -177 78 177 c43 98 107 244 142 326 l65 147 39 0 c22 0 39 -4 39 -8
0 -12 -320 -704 -333 -720 -6 -7 -24 -12 -40 -10 -29 3 -33 11 -184 361 -84
197 -153 363 -153 368 0 6 18 9 41 7 l41 -3 60 -145z m4776 134 c56 -23 101
-72 117 -128 17 -58 20 -247 5 -277 -10 -18 -24 -19 -241 -19 -140 0 -238 4
-250 10 -18 10 -19 7 -19 -59 0 -78 12 -113 44 -130 13 -7 100 -12 226 -14
l205 -2 3 -68 3 -69 -218 7 c-120 4 -233 11 -251 17 -45 13 -98 62 -125 112
-21 39 -22 52 -20 263 2 198 4 226 21 260 25 47 56 77 102 97 51 22 345 22
398 0z m1042 -8 c49 -26 88 -64 111 -108 17 -34 19 -62 19 -338 l0 -301 -67 3
-68 3 4 275 c3 238 1 280 -12 307 -21 39 -24 40 -148 48 l-104 7 3 -321 3
-322 -68 3 -68 3 0 315 0 315 -125 0 -125 0 -5 -315 -5 -315 -68 -3 -68 -3 3
348 c3 317 5 351 21 376 10 16 28 32 40 37 12 5 172 8 357 7 305 -2 338 -4
370 -21z m-6687 -857 c57 -44 60 -148 6 -193 -24 -21 -41 -26 -84 -26 -30 0
-56 3 -58 8 -3 4 -3 58 0 120 l6 112 52 0 c38 0 60 -6 78 -21z m127 1 c0 -13
-7 -20 -20 -20 -13 0 -20 7 -20 20 0 13 7 20 20 20 13 0 20 -7 20 -20z m1008
-89 c2 -78 6 -103 17 -108 20 -7 19 -33 -1 -33 -8 0 -24 5 -35 10 -17 10 -19
22 -19 119 0 59 3 111 7 115 20 19 28 -8 31 -103z m232 90 c0 -13 -8 -21 -22
-23 -30 -4 -37 -38 -9 -38 12 0 21 -6 21 -15 0 -8 -9 -15 -20 -15 -18 0 -20
-7 -20 -70 0 -63 -2 -70 -20 -70 -18 0 -20 7 -20 69 0 56 -3 70 -17 76 -17 6
-17 7 0 19 9 7 17 19 17 25 0 7 11 23 25 36 30 30 65 33 65 6z m-745 -13 c0
-9 -13 -12 -44 -11 -54 3 -74 10 -66 23 9 15 110 5 110 -12z m1915 -23 c0 -43
1 -45 21 -35 27 15 66 5 79 -20 6 -11 10 -48 8 -83 -2 -49 -7 -62 -20 -65 -14
-3 -18 7 -20 65 -3 58 -6 68 -22 71 -29 6 -46 -25 -46 -86 0 -46 -3 -53 -17
-50 -11 2 -18 12 -17 26 0 12 1 67 2 122 2 81 5 100 17 100 11 0 15 -12 15
-45z m-96 -77 c21 -68 31 -117 26 -122 -13 -13 -40 12 -40 35 0 16 -8 19 -45
19 -30 0 -45 -4 -45 -13 0 -24 -28 -53 -39 -42 -7 8 1 45 26 123 33 97 40 112
59 112 19 0 27 -14 58 -112z m-824 72 c0 -13 7 -20 20 -20 11 0 20 -7 20 -15
0 -8 -9 -15 -20 -15 -18 0 -20 -7 -20 -55 0 -48 2 -55 20 -55 11 0 20 -7 20
-15 0 -18 -50 -21 -68 -3 -7 7 -12 38 -12 70 0 46 -3 58 -16 58 -12 0 -9 8 13
34 33 40 43 44 43 16z m-1490 -96 c0 -76 -2 -85 -17 -82 -15 3 -18 15 -18 71
0 47 -4 67 -12 67 -7 0 -13 7 -13 15 0 10 10 15 30 15 l30 0 0 -86z m150 71
c0 -10 -11 -15 -35 -15 -45 0 -45 -16 0 -37 72 -34 51 -103 -32 -103 -56 0
-62 27 -6 32 49 4 53 24 9 45 -40 19 -52 43 -36 73 8 15 21 20 55 20 33 0 45
-4 45 -15z m162 -2 c10 -9 18 -30 18 -50 l0 -33 -55 0 c-53 0 -55 -1 -45 -20
8 -15 21 -20 50 -20 44 0 57 -23 19 -33 -36 -10 -78 4 -100 32 -27 33 -21 97
11 123 28 23 78 23 102 1z m88 7 c0 -7 6 -7 19 0 31 16 69 12 81 -9 5 -11 10
-49 10 -85 0 -59 -2 -66 -20 -66 -18 0 -20 7 -20 64 0 70 -8 83 -40 66 -17 -9
-20 -21 -20 -70 0 -53 -2 -60 -20 -60 -18 0 -20 7 -20 85 0 69 3 85 15 85 8 0
15 -5 15 -10z m260 -10 c16 -16 20 -33 20 -84 0 -63 0 -65 -30 -71 -75 -17
-130 28 -96 79 10 16 29 28 51 32 46 8 39 29 -9 28 -29 -1 -36 2 -36 17 0 27
73 26 100 -1z m249 3 c11 -10 24 -32 27 -50 l6 -32 -63 -3 -64 -3 23 -23 c18
-18 30 -22 54 -17 25 6 29 4 26 -12 -5 -30 -69 -30 -104 0 -23 20 -29 33 -29
67 0 72 73 115 124 73z m393 -60 c3 -66 4 -68 31 -71 l27 -3 0 70 c0 65 2 71
20 71 20 0 21 -5 18 -82 l-3 -83 -49 -3 c-71 -5 -86 13 -86 100 0 61 2 68 20
68 17 0 19 -8 22 -67z m288 9 c0 -63 11 -82 47 -82 22 0 23 4 23 70 0 64 2 70
20 70 20 0 21 -5 18 -82 l-3 -83 -39 -3 c-81 -7 -106 20 -106 113 0 44 5 55
27 55 9 0 13 -16 13 -58z m180 46 c0 -9 3 -9 12 0 17 17 48 15 48 -3 0 -9 -11
-20 -25 -25 -23 -9 -25 -15 -25 -70 0 -53 -2 -60 -20 -60 -18 0 -20 7 -20 85
0 69 3 85 15 85 8 0 15 -5 15 -12z m209 -14 c22 -28 28 -83 11 -113 -5 -10
-23 -24 -39 -31 -82 -34 -146 85 -80 151 29 29 83 25 108 -7z m685 15 c51 -24
59 -121 13 -154 -51 -36 -127 2 -127 64 0 76 53 117 114 90z m303 -11 c8 -7
13 -37 13 -84 l0 -74 -49 0 c-55 0 -81 17 -81 55 0 29 34 55 72 55 42 0 24 28
-20 32 -19 2 -37 8 -39 15 -8 23 77 24 104 1z m-127 -4 c0 -8 -9 -14 -20 -14
-27 0 -40 -29 -40 -90 0 -44 -3 -51 -17 -48 -15 3 -18 16 -21 85 l-3 81 51 0
c37 1 50 -3 50 -14z m-775 -136 c-4 -18 -9 -36 -12 -40 -8 -14 -33 -8 -33 6 0
29 20 66 36 66 12 0 14 -6 9 -32z"/>
<path d="M1437 1983 c-29 -7 -41 -51 -22 -79 28 -44 95 -22 95 31 0 21 -34 57
-50 54 -3 -1 -13 -3 -23 -6z"/>
<path d="M4292 1531 c-68 -23 -117 -70 -153 -146 -49 -102 -67 -95 231 -95
l261 0 -6 38 c-19 114 -82 191 -174 211 -70 15 -97 14 -159 -8z"/>
<path d="M7859 1451 c-21 -17 -24 -28 -24 -88 l0 -68 188 -3 187 -2 0 70 c0
107 -5 110 -184 110 -127 0 -147 -2 -167 -19z"/>
<path d="M2477 703 c-2 -5 -3 -44 -3 -88 l1 -80 33 2 c42 1 58 16 66 57 9 49
-10 93 -46 105 -37 13 -46 14 -51 4z"/>
<path d="M4942 633 c-17 -56 -15 -63 13 -63 28 0 31 15 11 69 l-12 34 -12 -40z"/>
<path d="M2930 620 c-10 -18 -8 -20 30 -20 38 0 40 2 30 20 -6 11 -19 20 -30
20 -11 0 -24 -9 -30 -20z"/>
<path d="M3297 568 c-21 -11 -22 -34 -2 -42 22 -8 45 4 45 24 0 22 -21 31 -43
18z"/>
<path d="M3543 633 c-28 -11 -13 -33 22 -33 37 0 43 8 23 28 -13 13 -24 14
-45 5z"/>
<path d="M4589 603 c-17 -43 0 -78 36 -78 28 0 30 3 33 38 6 65 -48 95 -69 40z"/>
<path d="M5305 613 c-19 -19 -19 -77 0 -93 35 -29 75 18 62 72 -8 31 -42 42
-62 21z"/>
<path d="M5597 553 c-4 -3 -7 -15 -7 -25 0 -13 8 -18 30 -18 25 0 30 4 30 25
0 20 -5 25 -23 25 -13 0 -27 -3 -30 -7z"/>
</g>
</svg>
