<?xml version="1.0" encoding="utf-8"?>
<!-- Generator: Adobe Illustrator 23.0.1, SVG Export Plug-In . SVG Version: 6.00 Build 0)  -->
<svg version="1.1" id="Capa_1" xmlns="http://www.w3.org/2000/svg" xmlns:xlink="http://www.w3.org/1999/xlink" x="0px" y="0px"
	 viewBox="0 0 1000 223" style="enable-background:new 0 0 1000 223;" xml:space="preserve">
<style type="text/css">
	.st0{fill:#333333;}
	.st1{fill:url(#SVGID_1_);}
</style>
<g>
	<g>
		<path class="st0" d="M203.01,171.74c0.8-0.09,1.77-0.17,2.91-0.25c1.13-0.07,2.24-0.11,3.33-0.1c4.47,0.03,7.79,1.18,9.99,3.47
			c2.19,2.28,3.28,5.55,3.25,9.8c-0.03,4.44-1.18,7.73-3.45,9.87c-2.27,2.14-5.64,3.19-10.1,3.16c-1.11-0.01-2.21-0.06-3.29-0.15
			c-1.09-0.09-2.02-0.2-2.8-0.32L203.01,171.74z M206.48,194.26c0.33,0.05,0.74,0.09,1.22,0.13c0.48,0.04,1,0.06,1.54,0.06
			c1.39,0.01,2.66-0.14,3.81-0.45c1.15-0.31,2.14-0.84,2.97-1.59c0.83-0.75,1.48-1.77,1.93-3.05c0.46-1.28,0.69-2.9,0.7-4.83
			c0.01-1.77-0.2-3.29-0.64-4.54c-0.44-1.25-1.07-2.28-1.88-3.08c-0.81-0.8-1.78-1.38-2.91-1.74c-1.13-0.36-2.38-0.55-3.75-0.56
			c-0.45,0-0.94,0-1.47,0.01c-0.53,0.01-1,0.05-1.4,0.11L206.48,194.26z"/>
		<path class="st0" d="M228.46,181.97l-2.3-0.02c-0.05-0.19-0.08-0.41-0.1-0.66c-0.02-0.25-0.03-0.49-0.03-0.73
			c0-0.24,0.02-0.48,0.04-0.73c0.03-0.25,0.06-0.47,0.11-0.66l5.74,0.04l-0.12,18.18c-0.26,0.04-0.55,0.08-0.87,0.1
			c-0.32,0.02-0.61,0.03-0.87,0.03c-0.24,0-0.51-0.02-0.83-0.04c-0.32-0.03-0.61-0.06-0.87-0.11L228.46,181.97z M227.73,175.19
			c-0.05-0.28-0.07-0.59-0.08-0.92c-0.01-0.33-0.01-0.63-0.01-0.89c0-0.26,0.01-0.56,0.02-0.89c0.01-0.33,0.04-0.63,0.09-0.89
			c0.31-0.04,0.64-0.08,0.99-0.1c0.35-0.02,0.66-0.03,0.92-0.03c0.26,0,0.57,0.02,0.92,0.04c0.35,0.03,0.67,0.06,0.96,0.11
			c0.05,0.26,0.07,0.56,0.08,0.89c0.01,0.33,0.01,0.63,0.01,0.89c0,0.26-0.01,0.56-0.02,0.89c-0.01,0.33-0.05,0.64-0.09,0.92
			c-0.28,0.05-0.6,0.08-0.94,0.1c-0.34,0.02-0.64,0.03-0.9,0.03c-0.28,0-0.6-0.02-0.96-0.04
			C228.36,175.28,228.03,175.24,227.73,175.19z"/>
		<path class="st0" d="M237.21,194.14c0.64,0.26,1.34,0.48,2.1,0.63c0.77,0.16,1.53,0.24,2.28,0.25c0.54,0,1.06-0.05,1.56-0.17
			c0.5-0.11,0.93-0.29,1.3-0.52c0.37-0.23,0.66-0.52,0.89-0.86c0.23-0.34,0.34-0.72,0.34-1.15c0-0.47-0.08-0.86-0.26-1.17
			c-0.18-0.31-0.41-0.57-0.7-0.78c-0.29-0.21-0.64-0.4-1.02-0.56c-0.39-0.16-0.81-0.31-1.25-0.45l-1.24-0.47
			c-1.51-0.58-2.6-1.22-3.28-1.94c-0.68-0.71-1.02-1.67-1.01-2.88c0.01-1.61,0.59-2.88,1.74-3.82c1.15-0.94,2.84-1.4,5.06-1.38
			c0.92,0.01,1.82,0.1,2.71,0.28c0.88,0.18,1.66,0.4,2.32,0.64c-0.05,0.47-0.14,0.94-0.28,1.42c-0.13,0.47-0.3,0.91-0.49,1.31
			c-0.52-0.19-1.14-0.38-1.86-0.56c-0.72-0.18-1.49-0.28-2.32-0.28c-0.87-0.01-1.65,0.14-2.32,0.45c-0.68,0.3-1.01,0.84-1.02,1.62
			c0,0.4,0.08,0.74,0.24,1.03c0.16,0.28,0.39,0.53,0.67,0.73c0.28,0.2,0.61,0.38,0.97,0.52c0.37,0.14,0.76,0.29,1.18,0.43l1.56,0.54
			c0.57,0.19,1.1,0.42,1.61,0.68c0.51,0.26,0.94,0.59,1.31,0.98c0.36,0.39,0.66,0.87,0.88,1.42c0.22,0.56,0.33,1.23,0.32,2
			c-0.01,0.87-0.19,1.67-0.55,2.39c-0.36,0.72-0.86,1.33-1.52,1.83c-0.65,0.5-1.44,0.89-2.36,1.17c-0.92,0.28-1.94,0.41-3.05,0.41
			c-1.13-0.01-2.13-0.09-2.98-0.25c-0.85-0.16-1.64-0.37-2.37-0.64c0.05-0.47,0.15-0.95,0.31-1.43
			C236.84,195.09,237.01,194.62,237.21,194.14z"/>
		<path class="st0" d="M256.3,189.34c0.03,1.99,0.54,3.44,1.51,4.37c0.97,0.93,2.42,1.4,4.33,1.41c1.68,0.01,3.27-0.27,4.79-0.86
			c0.19,0.36,0.34,0.79,0.45,1.3c0.12,0.51,0.18,1.01,0.2,1.51c-0.78,0.33-1.64,0.57-2.57,0.73c-0.93,0.16-1.97,0.24-3.1,0.23
			c-1.65-0.01-3.07-0.25-4.25-0.72c-1.18-0.47-2.15-1.12-2.91-1.97c-0.76-0.84-1.32-1.84-1.66-2.99c-0.35-1.15-0.52-2.41-0.51-3.78
			c0.01-1.35,0.19-2.6,0.54-3.77c0.35-1.17,0.88-2.18,1.6-3.04c0.71-0.86,1.61-1.54,2.69-2.04c1.08-0.5,2.35-0.75,3.82-0.74
			c1.25,0.01,2.35,0.23,3.29,0.66s1.73,1.02,2.36,1.77c0.63,0.75,1.11,1.64,1.44,2.67c0.32,1.03,0.48,2.15,0.47,3.35
			c0,0.33-0.02,0.68-0.04,1.05c-0.03,0.37-0.05,0.68-0.08,0.94L256.3,189.34z M265.32,186.78c0-0.66-0.08-1.29-0.25-1.9
			c-0.17-0.6-0.43-1.13-0.77-1.58c-0.34-0.45-0.77-0.81-1.3-1.09c-0.53-0.27-1.16-0.41-1.89-0.42c-1.44-0.01-2.55,0.42-3.32,1.29
			c-0.77,0.87-1.25,2.08-1.42,3.64L265.32,186.78z"/>
		<path class="st0" d="M273.45,179.5c0.26-0.04,0.51-0.08,0.76-0.1c0.25-0.02,0.5-0.03,0.76-0.03c0.26,0,0.5,0.02,0.73,0.04
			c0.22,0.03,0.47,0.06,0.73,0.11c0.07,0.35,0.14,0.83,0.2,1.44c0.07,0.6,0.1,1.11,0.1,1.51c0.24-0.4,0.54-0.8,0.91-1.2
			c0.37-0.4,0.79-0.76,1.27-1.07c0.47-0.32,1.02-0.57,1.64-0.77c0.62-0.2,1.29-0.29,2.02-0.29c2.08,0.01,3.61,0.62,4.6,1.82
			c0.98,1.2,1.47,2.97,1.45,5.31l-0.07,11.52c-0.26,0.05-0.56,0.08-0.89,0.1c-0.33,0.02-0.63,0.03-0.89,0.03
			c-0.26,0-0.55-0.02-0.87-0.04c-0.32-0.03-0.61-0.06-0.87-0.11l0.07-10.56c0.01-1.68-0.24-2.91-0.76-3.71
			c-0.51-0.79-1.34-1.2-2.47-1.2c-0.66,0-1.29,0.11-1.88,0.34c-0.59,0.23-1.11,0.6-1.57,1.09c-0.45,0.49-0.82,1.13-1.09,1.92
			c-0.28,0.79-0.42,1.74-0.43,2.85l-0.06,9.21c-0.26,0.05-0.55,0.08-0.87,0.1c-0.32,0.02-0.61,0.03-0.87,0.03
			c-0.26,0-0.56-0.02-0.89-0.04c-0.33-0.03-0.63-0.06-0.88-0.11L273.45,179.5z M274.83,174.01c0.36-0.47,0.82-0.87,1.39-1.21
			c0.57-0.34,1.24-0.51,2.02-0.5c0.5,0,0.97,0.09,1.42,0.26c0.45,0.17,0.88,0.35,1.29,0.54c0.41,0.19,0.83,0.37,1.25,0.54
			c0.42,0.17,0.87,0.25,1.35,0.26c0.4,0,0.77-0.07,1.12-0.21c0.34-0.14,0.77-0.43,1.26-0.88c0.52,0.64,0.89,1.36,1.12,2.17
			c-0.38,0.45-0.86,0.83-1.44,1.16c-0.58,0.33-1.25,0.49-2.01,0.48c-0.5,0-0.97-0.09-1.42-0.26c-0.45-0.17-0.88-0.35-1.31-0.54
			c-0.42-0.19-0.84-0.37-1.25-0.54c-0.41-0.17-0.84-0.25-1.29-0.26c-0.47,0-0.87,0.08-1.21,0.24c-0.33,0.16-0.74,0.44-1.21,0.84
			c-0.26-0.33-0.48-0.67-0.67-1.01C275.06,174.75,274.92,174.39,274.83,174.01z"/>
		<path class="st0" d="M303.5,185.89c0.01-1.39-0.34-2.36-1.04-2.91c-0.7-0.55-1.73-0.83-3.08-0.84c-0.83-0.01-1.6,0.06-2.32,0.18
			c-0.72,0.13-1.43,0.29-2.11,0.5c-0.44-0.78-0.66-1.72-0.65-2.8c0.8-0.25,1.69-0.45,2.66-0.59c0.97-0.14,1.9-0.2,2.8-0.19
			c2.36,0.02,4.15,0.56,5.38,1.65c1.22,1.08,1.82,2.81,1.81,5.17l-0.07,11.38c-0.83,0.18-1.83,0.37-3.02,0.57
			c-1.18,0.19-2.39,0.29-3.62,0.28c-1.16-0.01-2.2-0.12-3.13-0.34c-0.93-0.22-1.72-0.57-2.37-1.04c-0.65-0.48-1.14-1.08-1.49-1.82
			c-0.35-0.73-0.52-1.62-0.51-2.66c0.01-1.02,0.22-1.91,0.64-2.67c0.42-0.76,0.98-1.4,1.7-1.9c0.71-0.5,1.53-0.88,2.45-1.12
			c0.92-0.24,1.89-0.36,2.91-0.35c0.76,0,1.38,0.03,1.86,0.07c0.48,0.04,0.89,0.08,1.22,0.13L303.5,185.89z M303.47,189.33
			c-0.35-0.05-0.8-0.1-1.35-0.15c-0.54-0.05-1-0.08-1.38-0.08c-1.47-0.01-2.58,0.25-3.35,0.79c-0.77,0.54-1.16,1.36-1.17,2.47
			c0,0.71,0.12,1.26,0.38,1.67c0.26,0.4,0.58,0.71,0.97,0.93c0.39,0.22,0.82,0.35,1.29,0.4c0.47,0.05,0.92,0.08,1.35,0.08
			c0.54,0,1.1-0.02,1.68-0.08c0.58-0.06,1.09-0.14,1.54-0.26L303.47,189.33z"/>
		<path class="st0" d="M323.21,189.78c0.03,1.99,0.54,3.44,1.51,4.37c0.97,0.93,2.42,1.4,4.33,1.41c1.68,0.01,3.27-0.27,4.79-0.85
			c0.19,0.36,0.34,0.79,0.45,1.3c0.12,0.51,0.18,1.01,0.2,1.51c-0.78,0.33-1.64,0.57-2.57,0.73c-0.93,0.16-1.97,0.24-3.1,0.23
			c-1.65-0.01-3.07-0.25-4.25-0.72c-1.18-0.47-2.15-1.12-2.91-1.97c-0.76-0.84-1.32-1.84-1.66-2.99c-0.35-1.15-0.52-2.41-0.51-3.78
			c0.01-1.35,0.19-2.6,0.54-3.77c0.35-1.17,0.88-2.18,1.6-3.04c0.71-0.86,1.61-1.54,2.69-2.04s2.35-0.75,3.82-0.74
			c1.25,0.01,2.35,0.23,3.29,0.66c0.94,0.43,1.73,1.02,2.36,1.77c0.63,0.75,1.11,1.64,1.44,2.67c0.32,1.03,0.48,2.15,0.47,3.35
			c0,0.33-0.02,0.68-0.04,1.05c-0.03,0.37-0.05,0.68-0.08,0.94L323.21,189.78z M332.23,187.21c0-0.66-0.08-1.29-0.25-1.9
			c-0.17-0.6-0.43-1.13-0.77-1.58c-0.34-0.45-0.77-0.81-1.3-1.09c-0.53-0.27-1.16-0.42-1.89-0.42c-1.44-0.01-2.55,0.42-3.32,1.29
			c-0.77,0.87-1.25,2.08-1.42,3.64L332.23,187.21z"/>
		<path class="st0" d="M340.34,172.14c0.26-0.05,0.55-0.08,0.87-0.1c0.32-0.02,0.61-0.03,0.87-0.03c0.26,0,0.55,0.02,0.87,0.04
			c0.32,0.03,0.61,0.06,0.87,0.11l-0.13,20.48c0,0.66,0.05,1.18,0.17,1.56c0.12,0.38,0.27,0.67,0.47,0.87
			c0.2,0.2,0.43,0.33,0.71,0.39c0.27,0.06,0.56,0.09,0.87,0.09c0.21,0,0.45-0.01,0.73-0.03c0.27-0.02,0.5-0.06,0.69-0.1
			c0.21,0.83,0.31,1.73,0.3,2.7c-0.33,0.12-0.73,0.19-1.21,0.22c-0.47,0.03-0.91,0.05-1.31,0.04c-0.69,0-1.32-0.09-1.91-0.26
			c-0.59-0.17-1.11-0.44-1.55-0.83c-0.45-0.38-0.8-0.89-1.05-1.53c-0.26-0.64-0.38-1.43-0.37-2.38L340.34,172.14z"/>
		<path class="st0" d="M360.54,182.83l-2.98-0.02c-0.09-0.38-0.14-0.84-0.13-1.38c0-0.52,0.05-0.98,0.15-1.38l2.98,0.02l0.01-1.28
			c0.01-2.24,0.59-3.95,1.72-5.11c1.13-1.16,2.77-1.74,4.92-1.72c0.59,0,1.11,0.04,1.56,0.1c0.45,0.06,0.87,0.15,1.27,0.27
			c-0.05,0.59-0.12,1.1-0.2,1.52c-0.09,0.42-0.2,0.86-0.35,1.31c-0.24-0.05-0.51-0.1-0.83-0.16c-0.32-0.06-0.7-0.09-1.15-0.1
			c-0.52,0-0.99,0.05-1.4,0.15c-0.41,0.1-0.77,0.3-1.07,0.6c-0.3,0.29-0.53,0.71-0.7,1.24c-0.17,0.53-0.26,1.21-0.26,2.04
			l-0.01,1.17l4.64,0.03c0.07,0.47,0.1,0.96,0.1,1.45c0,0.45-0.04,0.89-0.11,1.31l-4.64-0.03l-0.1,15.42
			c-0.26,0.05-0.55,0.08-0.87,0.1c-0.32,0.02-0.61,0.03-0.87,0.03c-0.26,0-0.56-0.02-0.89-0.04c-0.33-0.03-0.63-0.06-0.89-0.11
			L360.54,182.83z"/>
		<path class="st0" d="M372.22,180.14c0.26-0.05,0.56-0.08,0.89-0.1c0.33-0.02,0.61-0.03,0.85-0.03c0.26,0,0.56,0.02,0.89,0.04
			c0.33,0.03,0.62,0.06,0.89,0.11l-0.07,9.96c-0.01,1.13,0.09,2.07,0.3,2.82c0.21,0.75,0.52,1.33,0.95,1.76
			c0.42,0.43,0.94,0.73,1.55,0.9c0.61,0.17,1.32,0.26,2.12,0.26c1.2,0.01,2.23-0.12,3.09-0.37l0.1-15.27
			c0.26-0.05,0.55-0.08,0.87-0.1c0.32-0.02,0.61-0.03,0.87-0.03c0.26,0,0.55,0.02,0.87,0.04c0.32,0.03,0.61,0.06,0.87,0.11
			l-0.11,17.61c-0.83,0.23-1.82,0.45-2.96,0.65c-1.15,0.2-2.34,0.3-3.56,0.3c-1.16-0.01-2.25-0.12-3.28-0.32
			c-1.03-0.21-1.93-0.62-2.7-1.24c-0.78-0.62-1.38-1.49-1.83-2.6c-0.44-1.11-0.66-2.58-0.65-4.4L372.22,180.14z"/>
		<path class="st0" d="M393.42,183.08l-2.76-0.02l-0.14-0.5l6.14-6.76l0.28,0l-0.03,4.5l4.61,0.03c0.09,0.4,0.14,0.85,0.13,1.35
			c0,0.26-0.02,0.51-0.04,0.74c-0.02,0.24-0.06,0.47-0.11,0.71l-4.61-0.03l-0.05,8.29c-0.01,0.99,0.03,1.78,0.11,2.38
			c0.08,0.59,0.22,1.05,0.42,1.37c0.2,0.32,0.47,0.53,0.81,0.64c0.34,0.11,0.77,0.16,1.29,0.17c0.4,0,0.78-0.02,1.14-0.08
			c0.35-0.06,0.67-0.12,0.96-0.19c0.16,0.47,0.26,0.96,0.29,1.45c0.03,0.5,0.05,0.93,0.04,1.31c-0.47,0.11-0.97,0.2-1.49,0.26
			c-0.52,0.06-1.08,0.08-1.67,0.08c-1.7-0.01-3.03-0.43-3.98-1.27c-0.95-0.83-1.42-2.21-1.41-4.12L393.42,183.08z"/>
		<path class="st0" d="M405.24,180.35c0.26-0.04,0.56-0.08,0.89-0.1c0.33-0.02,0.61-0.03,0.85-0.03c0.26,0,0.56,0.02,0.89,0.04
			c0.33,0.03,0.62,0.06,0.89,0.11l-0.07,9.96c-0.01,1.13,0.09,2.07,0.3,2.82c0.21,0.75,0.52,1.33,0.95,1.76
			c0.42,0.43,0.94,0.73,1.55,0.9c0.61,0.17,1.32,0.26,2.13,0.26c1.2,0.01,2.23-0.12,3.09-0.37l0.1-15.27
			c0.26-0.05,0.55-0.08,0.87-0.1c0.32-0.02,0.61-0.03,0.87-0.03c0.26,0,0.55,0.02,0.87,0.04c0.32,0.03,0.61,0.06,0.87,0.11
			l-0.11,17.61c-0.83,0.23-1.82,0.45-2.96,0.65c-1.15,0.21-2.34,0.3-3.56,0.3c-1.16-0.01-2.25-0.12-3.28-0.32
			c-1.03-0.21-1.93-0.62-2.7-1.24c-0.78-0.62-1.38-1.49-1.83-2.6c-0.44-1.11-0.66-2.58-0.65-4.4L405.24,180.35z"/>
		<path class="st0" d="M425.8,180.49c0.26-0.05,0.51-0.08,0.74-0.1c0.24-0.02,0.48-0.03,0.74-0.03c0.26,0,0.52,0.02,0.78,0.04
			c0.26,0.03,0.5,0.06,0.71,0.11c0.07,0.35,0.14,0.82,0.2,1.4c0.07,0.58,0.1,1.07,0.1,1.47c0.5-0.8,1.16-1.49,1.98-2.08
			c0.82-0.58,1.87-0.87,3.14-0.87c0.19,0,0.38,0.01,0.58,0.02c0.2,0.01,0.37,0.03,0.51,0.06c0.05,0.21,0.08,0.44,0.1,0.67
			c0.02,0.24,0.03,0.48,0.03,0.74c0,0.28-0.02,0.58-0.06,0.89c-0.04,0.31-0.08,0.6-0.13,0.89c-0.19-0.05-0.38-0.07-0.58-0.07
			c-0.2,0-0.36,0-0.48,0c-0.64,0-1.25,0.08-1.83,0.25c-0.58,0.17-1.1,0.48-1.57,0.93c-0.46,0.45-0.83,1.06-1.11,1.84
			c-0.28,0.78-0.42,1.78-0.43,3.01l-0.06,9.04c-0.26,0.05-0.55,0.08-0.87,0.1c-0.32,0.02-0.61,0.03-0.87,0.03
			c-0.26,0-0.55-0.02-0.87-0.04c-0.32-0.03-0.62-0.06-0.9-0.11L425.8,180.49z"/>
		<path class="st0" d="M445.7,199.22c-1.42-0.01-2.66-0.26-3.72-0.75c-1.06-0.49-1.94-1.16-2.65-2.02c-0.7-0.85-1.22-1.86-1.56-3.02
			c-0.34-1.16-0.5-2.41-0.49-3.76c0.01-1.35,0.19-2.6,0.54-3.75c0.35-1.16,0.88-2.16,1.6-3c0.71-0.85,1.6-1.51,2.67-2
			c1.07-0.49,2.31-0.73,3.73-0.72c1.42,0.01,2.66,0.26,3.72,0.77c1.06,0.5,1.94,1.18,2.64,2.04c0.7,0.86,1.22,1.86,1.56,3.02
			c0.34,1.16,0.5,2.41,0.49,3.76c-0.01,1.35-0.19,2.6-0.54,3.75c-0.35,1.16-0.88,2.16-1.6,3c-0.71,0.85-1.61,1.51-2.67,1.99
			C448.36,199,447.12,199.23,445.7,199.22z M445.72,196.42c1.63,0.01,2.84-0.57,3.63-1.75c0.79-1.18,1.19-2.82,1.2-4.92
			c0.01-2.1-0.37-3.74-1.14-4.92c-0.77-1.17-1.97-1.77-3.6-1.78s-2.83,0.57-3.61,1.73c-0.78,1.16-1.17,2.8-1.18,4.9
			c-0.01,2.1,0.36,3.75,1.12,4.93C442.89,195.82,444.09,196.41,445.72,196.42z"/>
		<path class="st0" d="M458.59,194.98c0.28-0.05,0.57-0.08,0.87-0.12c0.3-0.03,0.57-0.05,0.83-0.05c0.54,0,1.15,0.07,1.81,0.19
			l-2.28,7.89c-0.28,0.05-0.57,0.07-0.87,0.08c-0.3,0.01-0.57,0.01-0.83,0.01c-0.28,0-0.57-0.01-0.85-0.02
			c-0.28-0.01-0.56-0.04-0.81-0.09L458.59,194.98z"/>
		<path class="st0" d="M487.42,193.19l-9.68-0.06l-1.77,5.87c-0.31,0.04-0.61,0.08-0.92,0.1c-0.31,0.02-0.61,0.03-0.92,0.03
			c-0.33,0-0.66-0.02-0.97-0.04c-0.32-0.03-0.61-0.06-0.87-0.11l8.46-25.43c0.31-0.05,0.64-0.08,0.99-0.1
			c0.35-0.02,0.72-0.03,1.1-0.03c0.33,0,0.67,0.02,1.03,0.04c0.35,0.03,0.7,0.06,1.03,0.11l8.09,25.53c-0.28,0.04-0.6,0.08-0.96,0.1
			c-0.35,0.02-0.7,0.03-1.03,0.03c-0.31,0-0.62-0.02-0.94-0.04c-0.32-0.03-0.62-0.06-0.9-0.11L487.42,193.19z M478.72,189.98
			l7.76,0.05l-3.81-13.03L478.72,189.98z"/>
		<path class="st0" d="M496.55,173.15c0.26-0.05,0.55-0.08,0.87-0.1s0.61-0.03,0.87-0.03c0.26,0,0.55,0.02,0.89,0.04
			c0.33,0.03,0.63,0.06,0.89,0.11l-0.07,10.56c0.21-0.33,0.48-0.68,0.8-1.06s0.71-0.72,1.18-1.04c0.46-0.32,1-0.57,1.6-0.77
			c0.6-0.2,1.27-0.29,2-0.29c2.08,0.01,3.62,0.62,4.61,1.82c1,1.2,1.49,2.97,1.47,5.31l-0.08,11.52c-0.26,0.05-0.55,0.08-0.87,0.1
			c-0.32,0.02-0.61,0.03-0.87,0.03c-0.26,0-0.55-0.02-0.87-0.04c-0.32-0.03-0.61-0.06-0.87-0.11l0.07-10.56
			c0.01-1.68-0.26-2.91-0.81-3.71c-0.55-0.79-1.39-1.2-2.53-1.2c-0.64,0-1.25,0.1-1.85,0.32c-0.59,0.22-1.11,0.57-1.57,1.05
			c-0.45,0.48-0.81,1.11-1.07,1.89c-0.27,0.78-0.4,1.72-0.41,2.83l-0.06,9.32c-0.26,0.05-0.56,0.08-0.89,0.1
			c-0.33,0.02-0.63,0.03-0.89,0.03c-0.24,0-0.52-0.02-0.85-0.04c-0.33-0.03-0.63-0.06-0.89-0.11L496.55,173.15z"/>
		<path class="st0" d="M524.26,199.74c-1.42-0.01-2.66-0.26-3.72-0.75c-1.06-0.49-1.94-1.16-2.64-2.02
			c-0.7-0.86-1.22-1.86-1.56-3.02c-0.33-1.16-0.5-2.41-0.49-3.76c0.01-1.35,0.19-2.6,0.54-3.75c0.35-1.16,0.88-2.16,1.6-3
			c0.71-0.85,1.61-1.51,2.67-2c1.07-0.49,2.31-0.73,3.73-0.72c1.42,0.01,2.66,0.26,3.72,0.77c1.06,0.5,1.94,1.18,2.64,2.04
			c0.7,0.86,1.22,1.86,1.56,3.02c0.34,1.16,0.5,2.41,0.49,3.76c-0.01,1.35-0.19,2.6-0.54,3.75c-0.35,1.16-0.88,2.16-1.6,3
			c-0.72,0.85-1.61,1.51-2.67,1.99C526.92,199.51,525.68,199.74,524.26,199.74z M524.28,196.94c1.63,0.01,2.84-0.57,3.63-1.75
			c0.79-1.18,1.19-2.82,1.2-4.92s-0.37-3.74-1.14-4.92c-0.77-1.17-1.97-1.77-3.6-1.78c-1.63-0.01-2.83,0.57-3.61,1.73
			c-0.78,1.16-1.17,2.8-1.18,4.9c-0.01,2.1,0.36,3.75,1.12,4.93C521.46,196.33,522.65,196.92,524.28,196.94z"/>
		<path class="st0" d="M537.46,181.21c0.26-0.05,0.51-0.08,0.74-0.1c0.24-0.02,0.48-0.03,0.75-0.03c0.26,0,0.52,0.02,0.78,0.04
			c0.26,0.03,0.5,0.06,0.71,0.11c0.07,0.35,0.14,0.82,0.2,1.4c0.07,0.58,0.1,1.07,0.1,1.47c0.5-0.8,1.16-1.49,1.98-2.08
			c0.82-0.58,1.87-0.87,3.14-0.87c0.19,0,0.38,0.01,0.58,0.02c0.2,0.01,0.37,0.03,0.51,0.06c0.05,0.21,0.08,0.44,0.1,0.67
			c0.02,0.24,0.03,0.48,0.03,0.74c0,0.28-0.02,0.58-0.06,0.89c-0.04,0.31-0.08,0.6-0.13,0.89c-0.19-0.05-0.38-0.07-0.58-0.08
			c-0.2,0-0.36,0-0.48,0c-0.64,0-1.25,0.08-1.83,0.25c-0.58,0.17-1.1,0.48-1.57,0.93c-0.46,0.45-0.83,1.06-1.11,1.84
			c-0.28,0.78-0.42,1.78-0.43,3.01l-0.06,9.04c-0.26,0.05-0.55,0.08-0.87,0.1c-0.32,0.02-0.61,0.03-0.87,0.03
			c-0.26,0-0.55-0.02-0.87-0.04c-0.32-0.03-0.62-0.06-0.9-0.11L537.46,181.21z"/>
		<path class="st0" d="M559.85,187.56c0.01-1.39-0.34-2.37-1.04-2.91c-0.7-0.55-1.73-0.83-3.08-0.84c-0.83-0.01-1.6,0.06-2.32,0.18
			c-0.72,0.13-1.43,0.29-2.11,0.5c-0.44-0.78-0.66-1.72-0.66-2.8c0.81-0.25,1.69-0.45,2.66-0.59c0.97-0.13,1.9-0.2,2.8-0.19
			c2.36,0.02,4.16,0.56,5.38,1.65c1.22,1.08,1.82,2.81,1.81,5.17l-0.07,11.38c-0.83,0.18-1.83,0.37-3.02,0.57
			c-1.18,0.19-2.39,0.29-3.62,0.28c-1.16-0.01-2.2-0.12-3.13-0.34c-0.93-0.22-1.72-0.57-2.37-1.04c-0.65-0.48-1.14-1.08-1.49-1.82
			c-0.35-0.73-0.52-1.62-0.51-2.66c0.01-1.02,0.22-1.91,0.64-2.67c0.42-0.76,0.98-1.4,1.7-1.9c0.71-0.5,1.53-0.88,2.45-1.12
			c0.92-0.24,1.89-0.36,2.91-0.35c0.76,0.01,1.38,0.03,1.86,0.07c0.48,0.04,0.89,0.08,1.22,0.13L559.85,187.56z M559.83,191
			c-0.35-0.05-0.8-0.1-1.35-0.15s-1-0.08-1.38-0.08c-1.46-0.01-2.58,0.25-3.35,0.79c-0.77,0.54-1.16,1.36-1.17,2.47
			c0,0.71,0.12,1.27,0.38,1.67c0.26,0.4,0.58,0.71,0.97,0.93c0.39,0.21,0.82,0.35,1.29,0.4c0.47,0.05,0.92,0.08,1.35,0.08
			c0.54,0,1.1-0.02,1.68-0.08c0.58-0.06,1.09-0.14,1.54-0.26L559.83,191z"/>
	</g>
	<g>
		<path class="st0" d="M202.65,42.8l8.25,0.05l-0.69,106.58l56.24,0.37l-0.05,6.9l-64.49-0.42L202.65,42.8z"/>
		<path class="st0" d="M289.98,52.13c-0.02,3.7-2.74,7.22-7.12,7.19c-3.87-0.03-6.54-3.58-6.52-7.28c0.02-3.7,3.08-7.22,6.95-7.2
			C287.17,44.87,290.01,48.25,289.98,52.13z M278.36,156.78l0.53-80.82l8.25,0.05l-0.53,80.82L278.36,156.78z"/>
		<path class="st0" d="M307.17,76.15l20.72,49.98c3.81,9.12,6.63,15.87,9.11,22.96l0.34,0c2.74-7.05,6.15-14.27,9.91-22.83
			l21.88-49.7l8.75,0.06l-37.4,80.58l-7.41-0.05l-34.83-81.05L307.17,76.15z"/>
		<path class="st0" d="M387.56,117.08c-0.15,23.57,14.75,35.46,33.95,35.58c13.97,0.09,20.73-2.56,25.96-4.88l2.15,6.58
			c-2.87,1.33-11.99,5.48-29,5.37c-25.09-0.16-41.31-17.28-41.16-40.68c0.18-27.44,17.8-44.34,40.7-44.19
			c29.97,0.19,35.02,26.83,34.95,37.61c-0.02,2.53-0.02,3.7-0.37,5.05L387.56,117.08z M446.53,110.9
			c0.22-8.42-3.18-29.15-27.42-29.31c-20.54-0.13-29.24,16.65-31,28.93L446.53,110.9z"/>
		<path class="st0" d="M527.99,143.93c3.48,0.02,6.43-1.19,8.86-3.65c2.43-2.45,3.66-5.48,3.68-9.07l0.1-15.32
			c0.01-0.9-0.3-1.74-0.91-2.53c-0.61-0.79-1.31-1.3-2.1-1.53l-64.52-21.97c-2.58-0.91-4.76-2.61-6.53-5.09
			c-1.78-2.48-2.66-5.07-2.64-7.76l0.13-20.04c0.05-7.75,2.81-13.9,8.29-18.47c5.47-4.57,12.31-6.82,20.5-6.77l59.94,0.39
			l-0.08,12.29c0,0.56-0.2,1.07-0.6,1.51c-0.4,0.45-0.93,0.67-1.6,0.66l-57.75-0.38c-3.59-0.02-6.66,1.02-9.2,3.14
			c-2.54,2.12-3.82,4.92-3.84,8.39l-0.11,16.33c-0.01,0.9,0.27,1.77,0.82,2.62c0.56,0.85,1.28,1.38,2.18,1.61l64.52,21.81
			c2.46,0.8,4.53,2.5,6.2,5.09c1.67,2.59,2.49,5.24,2.47,7.93l-0.12,18.02c-0.03,5.17-1.27,9.84-3.71,14.04
			c-2.44,4.19-5.77,7.46-10,9.79c-4.23,2.33-8.92,3.48-14.08,3.44l-64.49-0.42l0.08-12.29c0-0.67,0.23-1.2,0.68-1.6
			c0.45-0.39,0.96-0.58,1.52-0.58L527.99,143.93z"/>
		<path class="st0" d="M635.87,74.92c0.56,0,1.01,0.17,1.34,0.51c0.33,0.34,0.5,0.73,0.5,1.18l-0.64,99.01
			c-0.03,4.49-1.15,8.61-3.36,12.35c-2.21,3.75-5.24,6.7-9.07,8.87c-3.83,2.16-7.93,3.23-12.31,3.2l-41.42-0.27l0.08-12.12
			c0-0.45,0.2-0.87,0.6-1.26c0.39-0.39,0.82-0.58,1.27-0.58l39.57,0.26c2.69,0.02,5.03-0.95,7.01-2.9c1.97-1.95,2.97-4.27,2.99-6.97
			l0.15-22.56c-1.25,1.56-2.88,2.84-4.91,3.84c-2.03,1-4.28,1.49-6.74,1.47l-19.03-0.12c-4.49-0.03-8.61-1.15-12.36-3.36
			c-3.75-2.21-6.7-5.23-8.86-9.07c-2.16-3.83-3.23-7.94-3.2-12.31l0.39-59.61l12.8,0.08c0.56,0,1.01,0.18,1.34,0.51
			c0.33,0.34,0.5,0.74,0.5,1.18l-0.38,58.6c-0.02,2.69,0.92,5.03,2.82,7.01c1.89,1.98,4.24,2.97,7.05,2.99l22.39,0.15
			c2.25-0.32,4.16-1.29,5.74-2.91c1.58-1.62,2.44-3.49,2.56-5.62l0.4-61.63L635.87,74.92z"/>
		<path class="st0" d="M650.95,112.14c-0.89-1.07-1.33-2.28-1.32-3.63l0.07-11.28c0.04-6.74,2.21-12.11,6.5-16.12
			c4.29-4.01,9.86-6,16.71-5.95l46.14,0.3l-0.08,11.95c0,0.45-0.17,0.87-0.51,1.26c-0.34,0.39-0.79,0.58-1.35,0.58l-44.28-0.29
			c-5.61-0.04-8.44,2.7-8.47,8.2l-0.03,4.88c-0.01,0.79,0.5,1.41,1.5,1.86l51.95,12.63c1.35,0.24,2.44,0.89,3.27,1.96
			c0.83,1.07,1.25,2.28,1.24,3.63l-0.1,14.99c-0.05,7.07-2.33,12.59-6.84,16.54c-4.52,3.96-10.31,5.91-17.38,5.86l-47.65-0.31
			l0.08-11.95c0-0.56,0.2-1.01,0.6-1.34c0.39-0.33,0.82-0.5,1.27-0.5l45.8,0.3c2.92,0.02,5.39-0.75,7.42-2.31
			c2.03-1.56,3.05-3.69,3.07-6.38l0.05-7.91c0.01-0.9-0.5-1.46-1.5-1.69L654.3,114.1C652.96,113.87,651.84,113.22,650.95,112.14z"/>
		<path class="st0" d="M777.85,146.56c0.33,0.34,0.5,0.79,0.5,1.35l-0.08,12.12l-17.01-0.11c-4.38-0.03-8.47-1.15-12.27-3.36
			c-3.8-2.21-6.79-5.21-8.95-8.98c-2.16-3.77-3.23-7.91-3.2-12.4l0.65-100.35l12.8,0.08c0.56,0,1.01,0.17,1.34,0.51
			c0.33,0.34,0.5,0.79,0.5,1.35l-0.27,42.1c0.45-0.89,1.11-1.62,1.95-2.18c0.84-0.56,1.83-0.83,2.95-0.82l17.85,0.12l-0.08,12.12
			c0,0.45-0.17,0.84-0.51,1.17c-0.34,0.33-0.79,0.5-1.35,0.5l-20.88-0.14l-0.3,46.3c-0.02,2.81,0.92,5.17,2.82,7.09
			c1.89,1.92,4.24,2.89,7.05,2.91l15.15,0.1C777.07,146.05,777.52,146.22,777.85,146.56z"/>
		<path class="st0" d="M799.59,156.89c-3.75-2.21-6.7-5.21-8.87-8.98c-2.16-3.77-3.23-7.91-3.2-12.4l0.23-35.7
			c0.05-7.52,2.42-13.37,7.1-17.55c4.69-4.18,10.57-6.25,17.64-6.2l22.56,0.15c7.07,0.05,12.92,2.19,17.55,6.43
			c4.63,4.24,6.92,10.12,6.87,17.64l-0.13,19.36c-0.01,1.68-0.3,2.97-0.87,3.87c-0.57,0.9-1.75,1.34-3.54,1.32l-46.14-0.3
			c-2.81-0.02-4.99-1.1-6.54-3.24l-0.1,14.99c-0.02,2.81,0.92,5.17,2.82,7.09c1.89,1.92,4.25,2.89,7.05,2.91l41.76,0.27
			c0.56,0,1.01,0.17,1.34,0.51c0.34,0.34,0.5,0.79,0.5,1.35l-0.08,12.12l-43.61-0.28C807.46,160.23,803.34,159.11,799.59,156.89z
			 M805.23,92.35c-1.86,1.67-2.81,4.14-2.83,7.39l-0.06,9.09c-0.01,1.01,0.55,1.63,1.67,1.86l39.23,0.26c0.56,0,1.01-0.19,1.35-0.58
			c0.34-0.39,0.51-0.81,0.51-1.26l0.06-9.09c0.04-6.62-3.19-9.96-9.7-10l-23.07-0.15C809.48,89.85,807.1,90.68,805.23,92.35z"/>
		<path class="st0" d="M963.93,80.34c3.75,2.21,6.7,5.21,8.87,8.98c2.17,3.78,3.23,7.91,3.2,12.4l-0.39,59.61l-12.8-0.08
			c-0.45,0-0.87-0.2-1.26-0.6c-0.39-0.39-0.58-0.82-0.58-1.27l0.38-58.6c0.02-2.69-0.92-5.03-2.82-7.01
			c-1.9-1.98-4.25-2.97-7.05-2.99l-21.89-0.14c2.01,1.25,3.01,2.83,3,4.73l-0.43,65.67l-12.8-0.08c-0.45,0-0.87-0.2-1.26-0.6
			c-0.39-0.39-0.58-0.82-0.58-1.27l0.43-66.68c0-0.56-0.16-1.01-0.5-1.35c-0.33-0.34-0.78-0.51-1.34-0.51l-25.43-0.17
			c-0.9-0.01-1.46,0.5-1.69,1.5l-0.44,67.02c0,0.45-0.17,0.87-0.51,1.26c-0.34,0.39-0.79,0.58-1.35,0.58l-12.8-0.08l0.48-73.25
			c0.02-3.03,1.1-5.6,3.25-7.72c2.14-2.12,4.74-3.17,7.77-3.15l66.17,0.43C956.06,77,960.18,78.12,963.93,80.34z"/>
	</g>
	<linearGradient id="SVGID_1_" gradientUnits="userSpaceOnUse" x1="37.8217" y1="102.9715" x2="182.3125" y2="102.9715">
		<stop  offset="0" style="stop-color:#00E1F7"/>
		<stop  offset="0.1559" style="stop-color:#00D5F8"/>
		<stop  offset="0.4382" style="stop-color:#01B5F9"/>
		<stop  offset="0.8119" style="stop-color:#0382FC"/>
		<stop  offset="1" style="stop-color:#0465FD"/>
	</linearGradient>
	<path class="st1" d="M182.25,110.63c-0.45-6.38-3.35-12.21-8.18-16.41c-9.86-8.57-24.8-7.61-33.51,2.06
		c-0.04,0.04-0.1,0.07-0.14,0.12l-34.18,34.18c-0.14,0.14-0.25,0.31-0.37,0.46c-0.12,0.11-0.26,0.19-0.38,0.31
		c-3.85,3.85-10.11,3.85-13.96,0c-3.85-3.85-3.85-10.11,0-13.96c0.07-0.07,0.12-0.16,0.19-0.24c0.12-0.11,0.26-0.19,0.38-0.31
		l40.75-40.75c2.73-2.73,2.73-7.15,0-9.88c-2.73-2.73-7.15-2.73-9.88,0l-40.75,40.75c-0.07,0.07-0.13,0.16-0.2,0.24
		c-0.12,0.11-0.26,0.19-0.38,0.31c-9.3,9.3-9.3,24.42,0,33.72c4.65,4.65,10.75,6.97,16.86,6.97s12.21-2.32,16.86-6.97
		c0.14-0.14,0.25-0.31,0.37-0.46c0.12-0.11,0.26-0.19,0.38-0.31l34.18-34.18c0.06-0.06,0.09-0.12,0.15-0.18
		c0.12-0.12,0.26-0.22,0.37-0.35c3.61-4.15,9.93-4.6,14.08-0.99c2.01,1.75,3.22,4.18,3.41,6.84c0.18,2.56-0.62,5.03-2.24,7.01
		l-50.47,50.47H66.11c0.05-0.45,0.07-0.9,0.07-1.36c0-7.22-5.85-13.07-13.07-13.07c-0.45,0-0.88,0.02-1.32,0.07v-49.44l50.44-50.44
		c1.72,0.61,3.57,0.97,5.5,0.97c9.08,0,16.46-7.39,16.46-16.46s-7.39-16.46-16.46-16.46s-16.46,7.39-16.46,16.46
		c0,1.99,0.37,3.9,1.03,5.67L40.5,96.82c-0.07,0.07-0.12,0.15-0.18,0.22c-1.52,1.28-2.49,3.2-2.49,5.34v73.69
		c0,3.86,3.13,6.99,6.99,6.99h73.69c2.15,0,4.07-0.97,5.35-2.49c0.07-0.06,0.15-0.11,0.22-0.18l51.72-51.72
		c0.23-0.2,0.44-0.41,0.65-0.65C180.63,123.19,182.7,117.01,182.25,110.63z M107.74,33.04c3.47,0,6.3,2.83,6.3,6.3
		c0,3.47-2.83,6.3-6.3,6.3s-6.3-2.83-6.3-6.3C101.44,35.87,104.27,33.04,107.74,33.04z"/>
</g>
</svg>
